<svg xmlns="http://www.w3.org/2000/svg" width="247" height="227" viewBox="0 0 247 227" fill="none">
  <path d="M163.826 47.1222C202.155 23.346 289.549 145.982 220.425 216.869C205.053 232.632 200.492 222.993 180.382 226.307C169.055 228.172 164.443 204.269 113.501 219.238C80.0107 229.079 84.9121 183.127 37.4101 193.849C-66.3005 217.247 73.3453 40.608 163.838 47.1222H163.826Z" fill="black"/>
  <path fill-rule="evenodd" clip-rule="evenodd" d="M172.23 46.8198C166.799 56.232 152.486 58.311 139.432 54.2538C125.446 49.9068 118.189 34.6986 123.922 21.2292C127.399 13.0518 133.825 6.00839 143.426 2.25359C153.028 -1.50121 163.725 2.51819 168.563 11.5272C174.7 22.9554 176.892 38.7684 172.243 46.8324L172.23 46.8198Z" fill="black"/>
  <path d="M186.896 147.758C188.03 142.076 190.424 137.59 193.461 134.654C197.896 130.37 203.767 129.236 209.173 132.197C212.348 133.936 215.284 137.162 217.64 142.051C215.574 144.268 213.268 145.138 210.786 145.251C205.342 135.184 196.989 138.208 194.481 148.338C191.76 149.044 189.24 148.64 186.896 147.746V147.758Z" fill="#FFF8F5"/>
  <path d="M188.307 142.807C189.592 139.43 191.369 136.683 193.46 134.654C197.895 130.37 203.767 129.236 209.172 132.197C211.062 133.231 212.864 134.793 214.502 136.91C212.007 138.17 209.324 139.279 206.489 140.198C203.2 138.056 199.697 139.052 197.19 142.34C194.128 142.769 191.129 142.92 188.294 142.794L188.307 142.807Z" fill="white" stroke="black" stroke-width="2.52" stroke-miterlimit="10"/>
  <path fill-rule="evenodd" clip-rule="evenodd" d="M172.809 137.426C168.487 131.744 147.924 125.482 144.358 128.279C143.388 147.834 139.507 173.614 135.45 183.618C146.425 187.121 168.198 185.861 177.711 183.379C172.645 173.903 171.826 144.671 172.809 137.414V137.426Z" fill="white" stroke="#020202" stroke-width="2.52" stroke-miterlimit="10"/>
  <path fill-rule="evenodd" clip-rule="evenodd" d="M193.788 100.546C199.206 99.0468 204.902 102.575 206.514 108.409C208.127 114.255 205.053 120.202 199.635 121.689C194.217 123.188 188.522 119.66 186.909 113.827C185.296 107.993 188.37 102.033 193.788 100.546Z" fill="white" stroke="#020202" stroke-width="2.52" stroke-miterlimit="10"/>
  <path fill-rule="evenodd" clip-rule="evenodd" d="M144.346 128.279C123.291 139.342 115.945 97.9884 142.582 108.963C149.26 98.6184 161.469 96.6654 162.603 77.9292C167.177 77.6142 171.65 77.6898 176.01 78.2694C186.052 79.5924 194.506 86.3334 198.236 95.7582C208.089 120.656 196.787 146.158 180.747 151.551C169.533 155.331 157.147 145.755 144.333 128.291L144.346 128.279Z" fill="white" stroke="#020202" stroke-width="2.52" stroke-miterlimit="10"/>
  <path d="M131.406 116.8C130.738 117.191 129.894 116.977 129.491 116.309C129.1 115.641 129.314 114.797 129.982 114.394C130.234 114.242 130.499 114.104 130.763 113.978C132.628 113.071 134.669 112.768 136.622 113.31C138.563 113.839 140.365 115.187 141.763 117.544C141.94 117.833 142.103 118.148 142.267 118.476C142.494 118.892 142.519 119.408 142.267 119.849C141.889 120.517 141.032 120.744 140.365 120.366C139.533 119.887 138.752 119.572 138.021 119.383C137.29 119.194 136.597 119.156 135.98 119.219C135.211 119.308 134.531 118.753 134.443 117.985C134.354 117.216 134.909 116.536 135.677 116.447C136.093 116.397 136.509 116.384 136.95 116.41C136.61 116.221 136.257 116.069 135.892 115.969C134.632 115.616 133.271 115.843 131.986 116.46C131.797 116.548 131.608 116.649 131.406 116.775V116.8Z" fill="black"/>
  <path d="M143.174 129.022C142.758 128.367 142.96 127.51 143.615 127.107C144.27 126.691 145.127 126.893 145.53 127.548C147.698 130.988 150.318 134.528 153.481 137.905C156.644 141.269 160.335 144.47 164.67 147.217C165.312 147.632 165.514 148.489 165.098 149.132C164.682 149.774 163.826 149.976 163.183 149.56C158.634 146.662 154.766 143.323 151.465 139.808C148.164 136.292 145.442 132.613 143.187 129.035L143.174 129.022Z" fill="black"/>
  <path d="M110.49 147.317C114.308 141.962 118.882 138.422 123.38 136.809C129.97 134.428 136.572 135.99 140.793 141.584C143.275 144.86 144.813 149.573 144.976 155.734C141.801 157.057 139.004 156.893 136.383 155.86C135.438 142.907 125.371 142.151 118.063 151.475C114.913 150.934 112.494 149.359 110.478 147.33L110.49 147.317Z" fill="#FFF8F5"/>
  <path d="M114.258 142.844C117.156 139.946 120.293 137.918 123.393 136.809C129.982 134.428 136.585 135.99 140.806 141.584C142.28 143.537 143.414 145.982 144.132 148.943C140.97 149.094 137.668 148.993 134.304 148.615C131.898 144.86 127.803 144.256 123.682 146.511C120.306 145.528 117.143 144.293 114.258 142.844Z" fill="white" stroke="black" stroke-width="2.52" stroke-miterlimit="10"/>
</svg>